<?xml version="1.0" encoding="UTF-8"?><svg id="Layer_2" xmlns="http://www.w3.org/2000/svg" viewBox="0 0 795 788"><defs><style>.cls-1{stroke-width:12px;}.cls-1,.cls-2,.cls-3{fill:none;stroke:#6196ff;stroke-miterlimit:10;}.cls-2{stroke-width:19px;}.cls-3{stroke-width:29px;}</style></defs><rect class="cls-3" x="62" y="48.5" width="89.5" height="89.5" rx="21.43" ry="21.43"/><rect class="cls-3" x="352.83" y="48.81" width="89.5" height="89.5" rx="21.43" ry="21.43"/><rect class="cls-3" x="637.83" y="48.81" width="89.5" height="89.5" rx="21.43" ry="21.43"/><path class="cls-3" d="M106.75,177.84v63.72c0,22.97,18.62,41.59,41.59,41.59H506.12c17.11,0,30.97,13.87,30.97,30.97v245.13"/><path class="cls-3" d="M682.58,177.84v242.74c0,16.96-13.75,30.71-30.71,30.71h-74.07"/><path class="cls-3" d="M499.93,451.29l-218.17,.18c-16.73,.01-30.29,13.56-30.33,30.28l-.18,77.5"/><line class="cls-3" x1="393.68" y1="177.84" x2="393.68" y2="251"/><line class="cls-3" x1="393.68" y1="321.13" x2="393.68" y2="416.74"/><rect class="cls-3" x="51.5" y="598.5" width="686" height="117" rx="30.08" ry="30.08"/><path class="cls-2" d="M113,715.5l.03,20.08c0,5.76,4.68,10.42,10.44,10.42H664.61c5.74,0,10.39-4.65,10.39-10.39v-20.11"/><rect class="cls-1" x="184" y="665" width="11" height="11" rx="1.05" ry="1.05"/><rect class="cls-1" x="112" y="665" width="11" height="11" rx="1.05" ry="1.05"/></svg>